<?xml version="1.0" standalone="no"?>
<!DOCTYPE svg PUBLIC "-//W3C//DTD SVG 20010904//EN"
 "http://www.w3.org/TR/2001/REC-SVG-20010904/DTD/svg10.dtd">
<svg version="1.0" xmlns="http://www.w3.org/2000/svg"
 width="300.000000pt" height="300.000000pt" viewBox="0 0 300.000000 300.000000"
 preserveAspectRatio="xMidYMid meet">
<metadata>
Created by potrace 1.14, written by Peter Selinger 2001-2017
</metadata>
<g transform="translate(0.000000,300.000000) scale(0.100000,-0.100000)"
fill="#000000" stroke="none">
<path d="M2146 1883 c-9 -22 8 -38 42 -39 15 -1 30 -2 33 -3 4 -1 7 -116 7
-256 l1 -255 -39 0 c-26 0 -40 -5 -44 -16 -15 -38 9 -43 191 -43 96 0 177 -2
180 -4 2 -3 -12 -36 -31 -75 -30 -60 -33 -72 -21 -82 24 -20 42 -5 76 62 l32
62 33 -67 c24 -47 40 -67 53 -67 33 0 32 29 -4 100 l-35 70 77 1 c43 0 123 0
178 0 107 -1 129 5 123 35 -2 14 -14 20 -43 24 l-40 5 0 255 0 255 31 -3 c34
-3 60 18 50 43 -5 13 -60 15 -425 15 -382 0 -419 -1 -425 -17z m704 -42 c3 -1
6 -116 5 -256 l0 -255 -282 0 c-219 0 -283 3 -284 13 -1 16 -1 469 0 484 1 6
16 13 34 15 25 2 507 1 527 -1z"/>
<path d="M2679 1651 c-45 -45 -87 -81 -93 -81 -6 0 -20 6 -31 13 -65 43 -72
42 -137 -20 -72 -69 -84 -89 -67 -109 16 -20 23 -18 61 19 85 81 80 79 118 58
76 -40 73 -41 176 60 67 66 94 99 92 114 -6 40 -36 26 -119 -54z"/>
<path d="M1959 1790 c0 -3 -2 -36 -5 -73 -6 -112 -35 -185 -67 -174 -35 11
-19 91 25 121 19 14 20 16 5 16 -45 0 -73 -32 -82 -94 -11 -64 53 -96 89 -44
13 18 14 18 19 -2 10 -38 23 -20 25 33 0 29 5 71 10 93 10 50 8 102 -7 117 -6
6 -11 9 -12 7z"/>
<path d="M1165 1707 c-1 -34 -4 -88 -8 -120 -8 -56 -8 -57 20 -68 82 -31 159
45 102 102 l-21 21 21 14 c25 18 27 56 4 79 -12 12 -27 16 -54 12 -24 -3 -42
0 -50 9 -12 11 -14 3 -14 -49z m95 8 c17 -20 4 -50 -28 -65 l-27 -12 33 -16
c37 -18 41 -43 12 -72 -22 -22 -59 -27 -61 -7 -4 34 8 165 17 178 8 14 40 11
54 -6z"/>
<path d="M48 1730 c-76 -60 -52 -226 31 -216 31 3 69 25 75 43 7 18 -9 16 -24
-2 -16 -20 -64 -19 -80 0 -32 38 -14 137 30 168 31 22 52 11 50 -27 -3 -48 -1
-50 19 -32 21 20 21 63 0 77 -24 15 -75 10 -101 -11z"/>
<path d="M399 1644 c-1 -27 -2 -65 -3 -84 -1 -47 26 -49 30 -2 3 37 32 93 53
100 12 4 13 -7 8 -58 -5 -41 -3 -68 4 -76 18 -22 25 -16 26 24 0 20 3 54 6 75
5 44 -12 68 -43 60 -11 -3 -20 -8 -20 -12 0 -3 -9 -17 -19 -30 l-19 -25 5 25
c3 16 -1 30 -11 38 -14 12 -16 8 -17 -35z"/>
<path d="M568 1685 c-5 -5 27 -163 34 -170 16 -16 94 134 84 161 -6 15 -13 4
-34 -48 -28 -73 -39 -76 -43 -13 -4 57 -22 89 -41 70z"/>
<path d="M830 1660 c0 -40 -28 -107 -47 -114 -48 -19 -46 65 2 109 22 22 23
25 7 25 -36 0 -82 -61 -82 -111 0 -19 33 -59 49 -59 4 0 20 11 35 25 16 15 26
19 26 11 0 -8 7 -19 15 -26 13 -11 15 -8 15 21 0 19 3 57 6 85 5 41 3 52 -10
57 -12 5 -16 0 -16 -23z"/>
<path d="M932 1674 c-31 -22 -27 -46 14 -83 38 -35 40 -54 6 -59 -21 -3 -27 6
-23 36 2 11 -2 11 -19 2 -19 -10 -20 -13 -7 -33 18 -28 51 -33 83 -13 34 23
30 46 -12 83 -25 21 -35 36 -30 48 9 25 42 14 38 -14 -2 -20 0 -22 13 -11 20
16 19 46 -1 54 -24 9 -38 7 -62 -10z"/>
<path d="M1382 1680 c-22 -15 -42 -58 -42 -90 0 -49 36 -84 75 -74 53 13 88
123 49 155 -17 14 -68 19 -82 9z m65 -78 c-3 -26 -12 -49 -23 -57 -26 -20 -33
-19 -45 9 -14 30 -5 70 22 97 31 31 53 8 46 -49z"/>
<path d="M1637 1683 c-4 -3 -7 -20 -7 -37 0 -45 -31 -101 -55 -101 -38 0 -32
65 11 108 17 17 22 27 13 27 -38 0 -86 -61 -83 -105 2 -40 4 -44 25 -56 18 -9
27 -7 50 10 35 26 35 26 42 1 10 -38 22 -20 21 32 -1 28 2 64 6 79 8 28 -9 57
-23 42z"/>
<path d="M1720 1666 c0 -12 -3 -51 -6 -85 -6 -57 -6 -61 14 -61 14 0 20 5 16
13 -3 8 0 33 5 57 7 34 6 50 -5 72 -18 34 -24 35 -24 4z"/>
<path d="M1776 1675 c-21 -21 -22 -42 -1 -25 13 11 15 8 15 -15 0 -24 2 -26
16 -15 17 15 15 61 -2 67 -7 2 -19 -3 -28 -12z"/>
<path d="M229 1651 c-37 -38 -43 -104 -11 -128 22 -18 26 -17 64 14 18 15 30
23 26 19 -8 -9 8 -46 20 -46 4 0 8 19 8 43 0 23 2 60 4 82 4 31 1 40 -11 43
-12 2 -16 -5 -17 -28 -2 -81 -73 -146 -80 -73 -2 23 5 40 28 67 25 28 28 36
15 36 -9 0 -30 -13 -46 -29z"/>
<path d="M1096 1353 c-3 -3 -3 -10 0 -14 7 -12 44 -12 44 0 0 10 -36 21 -44
14z"/>
<path d="M1963 1353 c-7 -3 -13 -13 -13 -23 0 -14 -5 -17 -21 -13 -24 7 -42
-16 -45 -55 -1 -27 19 -39 66 -38 l35 1 3 59 c3 60 -3 77 -25 69z m-17 -111
c-8 -8 -17 3 -20 25 -2 10 2 21 8 25 11 8 23 -39 12 -50z"/>
<path d="M953 1343 c-13 -2 -24 -15 -28 -31 l-8 -27 -6 25 c-4 16 -15 26 -30
28 -13 2 -21 0 -18 -5 2 -4 1 -17 -3 -28 -7 -19 -9 -18 -19 8 -6 16 -18 27
-30 27 -18 0 -18 -1 -1 -57 19 -61 47 -83 57 -44 6 24 23 28 23 6 0 -40 51
-23 59 20 1 11 9 34 16 50 13 29 13 27 10 -28 -3 -44 0 -60 11 -64 22 -8 26 1
29 67 3 65 2 65 -62 53z"/>
<path d="M664 1332 c-9 -6 -44 -89 -44 -105 0 -4 9 -7 20 -7 11 0 20 7 20 16
0 10 4 12 13 7 6 -4 14 -8 17 -9 3 0 13 -4 22 -8 33 -15 36 -1 14 54 -21 53
-39 68 -62 52z m26 -63 c0 -5 -4 -9 -10 -9 -5 0 -10 7 -10 16 0 8 5 12 10 9 6
-3 10 -10 10 -16z"/>
<path d="M1167 1332 c-15 -3 -18 -12 -15 -50 3 -40 7 -48 30 -56 32 -11 50 0
28 17 -19 15 -22 57 -4 50 9 -3 14 2 14 12 0 11 -5 15 -16 11 -8 -3 -12 -2 -9
3 7 13 -6 18 -28 13z"/>
<path d="M1400 1279 c0 -52 2 -59 20 -59 15 0 20 7 20 25 0 19 5 25 22 25 20
0 20 -1 5 -18 -22 -24 -21 -32 2 -32 26 0 43 24 46 65 2 44 -9 53 -68 53 l-47
0 0 -59z m64 35 c18 -7 12 -24 -10 -24 -8 0 -14 7 -14 15 0 17 2 18 24 9z"/>
<path d="M1024 1309 c-3 -6 -1 -15 6 -19 6 -4 11 -10 11 -14 -5 -38 1 -56 19
-56 17 0 20 7 20 40 0 29 -5 42 -19 50 -25 13 -28 13 -37 -1z"/>
<path d="M1098 1308 c-2 -7 -4 -29 -4 -48 1 -28 5 -35 21 -35 17 0 20 7 20 48
0 37 -3 47 -16 47 -9 0 -19 -6 -21 -12z"/>
<path d="M1247 1308 c-6 -3 -12 -20 -13 -37 -3 -35 14 -48 60 -47 31 1 49 24
19 23 -32 0 -43 3 -43 11 0 4 16 6 35 4 30 -4 34 -2 30 17 -2 12 -7 25 -10 31
-6 10 -60 9 -78 -2z m53 -24 c0 -2 -7 -4 -15 -4 -8 0 -15 4 -15 10 0 5 7 7 15
4 8 -4 15 -8 15 -10z"/>
<path d="M1541 1307 c-15 -15 -14 -64 1 -73 7 -5 28 -9 46 -11 26 -2 35 2 44
22 18 40 -2 73 -45 73 -19 0 -40 -5 -46 -11z m54 -35 c0 -31 -19 -28 -23 4 -3
18 0 25 10 22 7 -3 13 -14 13 -26z"/>
<path d="M1667 1313 c-11 -10 -8 -21 6 -20 28 1 47 -4 47 -11 0 -5 -13 -7 -29
-4 -34 5 -50 -23 -27 -46 20 -20 53 -8 36 13 -10 12 -9 15 4 15 9 0 15 -3 15
-7 -4 -23 3 -34 18 -31 22 4 26 57 5 81 -15 17 -62 23 -75 10z"/>
<path d="M1772 1272 c2 -35 7 -48 21 -50 14 -3 17 4 17 32 0 26 4 36 16 36 8
0 12 -4 9 -10 -3 -5 3 -10 14 -10 14 0 21 6 21 20 0 25 -25 36 -45 20 -8 -7
-15 -8 -15 -3 0 5 -9 9 -21 10 -18 2 -20 -3 -17 -45z"/>
</g>
</svg>
